<svg width="68" height="73" viewBox="0 0 68 73" fill="none" xmlns="http://www.w3.org/2000/svg">
<path d="M33.7249 0.638184C27.8873 0.638184 24.3931 1.52434 22.172 2.62926C21.0601 3.18311 20.2706 3.76465 19.7397 4.36003C19.2059 4.95541 18.8696 5.83049 18.8696 5.83049C18.7824 6.05289 18.7245 6.28559 18.6972 6.5228L17.2184 25.4754C17.1989 25.5917 17.2378 25.78 17.2184 25.9074L17.046 27.8126C17.0298 27.9849 17.0298 28.1583 17.046 28.3305C17.046 37.469 24.5515 44.9459 33.7249 44.9459C42.8983 44.9459 50.4038 37.469 50.4038 28.3305V27.8985C50.4043 27.8699 50.4043 27.8413 50.4038 27.8126L48.7526 6.5228C48.7254 6.28559 48.6674 6.05289 48.5803 5.83049C48.5803 5.83049 48.2439 4.95541 47.7102 4.36003C47.1792 3.76188 46.3898 3.18034 45.2778 2.62926C43.0568 1.52157 39.5625 0.638184 33.7249 0.638184ZM33.7249 44.9459C15.3781 44.9459 0.367126 53.5471 0.367126 61.301V72.6382H67.0827V61.301C67.0827 53.9348 53.5117 45.821 36.4186 45.0317C35.5219 44.9728 34.6235 44.9441 33.7249 44.9459ZM33.7249 6.17665C39.0066 6.17665 41.6446 7.00741 42.7593 7.56126C43.1318 7.7468 43.1763 7.8188 43.2819 7.90741L44.4105 22.0997C41.8531 22.2548 38.3672 22.792 33.7249 22.792C29.0826 22.792 25.5995 22.2548 23.0393 22.0997L24.1679 7.90741C24.2708 7.8188 24.318 7.7468 24.6905 7.56126C25.8052 7.00741 28.4433 6.17665 33.7249 6.17665ZM31.4649 8.94588V12.2357H28.1653V16.7357H31.4677V20.0228H35.9821V16.733H39.2846V12.2357H35.9821V8.94588H31.4677H31.4649ZM25.3855 51.1766L32.5101 67.0997H5.92676V61.301C5.92676 59.2379 13.0153 53.1954 25.3855 51.1766ZM42.0644 51.1766C54.4346 53.1982 61.5231 59.2379 61.5231 61.301V67.0997H34.9397L42.0644 51.1766Z" fill="#EC5863"/>
</svg>
