<svg width="145" height="46" viewBox="0 0 145 46" fill="none" xmlns="http://www.w3.org/2000/svg">
<path d="M56.462 29.1415C54.734 29.1415 53.384 28.7215 52.412 27.8815C51.44 27.0295 50.924 25.8235 50.864 24.2635C50.852 23.9155 50.846 23.3635 50.846 22.6075C50.846 21.8515 50.852 21.2995 50.864 20.9515C50.924 19.4275 51.446 18.2515 52.43 17.4235C53.426 16.5955 54.77 16.1815 56.462 16.1815C57.602 16.1815 58.592 16.3675 59.432 16.7395C60.284 17.1115 60.932 17.5855 61.376 18.1615C61.832 18.7375 62.072 19.3315 62.096 19.9435C62.096 20.0515 62.054 20.1415 61.97 20.2135C61.898 20.2855 61.808 20.3215 61.7 20.3215H59.072C58.952 20.3215 58.856 20.3035 58.784 20.2675C58.712 20.2315 58.652 20.1655 58.604 20.0695C58.448 19.7215 58.202 19.4215 57.866 19.1695C57.53 18.9055 57.062 18.7735 56.462 18.7735C55.034 18.7735 54.284 19.5295 54.212 21.0415C54.2 21.3775 54.194 21.8995 54.194 22.6075C54.194 23.3035 54.2 23.8255 54.212 24.1735C54.284 25.7575 55.052 26.5495 56.516 26.5495C57.224 26.5495 57.788 26.3695 58.208 26.0095C58.64 25.6375 58.856 25.0735 58.856 24.3175V23.9755H57.164C57.032 23.9755 56.924 23.9335 56.84 23.8495C56.756 23.7535 56.714 23.6395 56.714 23.5075V22.1755C56.714 22.0435 56.756 21.9355 56.84 21.8515C56.924 21.7555 57.032 21.7075 57.164 21.7075H61.7C61.832 21.7075 61.94 21.7555 62.024 21.8515C62.108 21.9355 62.15 22.0435 62.15 22.1755V24.2275C62.15 25.2475 61.916 26.1295 61.448 26.8735C60.98 27.6055 60.314 28.1695 59.45 28.5655C58.598 28.9495 57.602 29.1415 56.462 29.1415ZM68.4451 29.1415C66.9571 29.1415 65.8111 28.7875 65.0071 28.0795C64.2031 27.3715 63.7651 26.3755 63.6931 25.0915C63.6811 24.9355 63.6751 24.6655 63.6751 24.2815C63.6751 23.8975 63.6811 23.6275 63.6931 23.4715C63.7651 22.1995 64.2151 21.2095 65.0431 20.5015C65.8711 19.7815 67.0051 19.4215 68.4451 19.4215C69.8971 19.4215 71.0371 19.7815 71.8651 20.5015C72.6931 21.2095 73.1431 22.1995 73.2151 23.4715C73.2271 23.6275 73.2331 23.8975 73.2331 24.2815C73.2331 24.6655 73.2271 24.9355 73.2151 25.0915C73.1431 26.3755 72.7051 27.3715 71.9011 28.0795C71.0971 28.7875 69.9451 29.1415 68.4451 29.1415ZM68.4451 26.9455C68.9731 26.9455 69.3631 26.7895 69.6151 26.4775C69.8671 26.1535 70.0111 25.6615 70.0471 25.0015C70.0591 24.8815 70.0651 24.6415 70.0651 24.2815C70.0651 23.9215 70.0591 23.6815 70.0471 23.5615C70.0111 22.9135 69.8611 22.4275 69.5971 22.1035C69.3451 21.7795 68.9611 21.6175 68.4451 21.6175C67.4491 21.6175 66.9211 22.2655 66.8611 23.5615L66.8431 24.2815L66.8611 25.0015C66.8851 25.6615 67.0231 26.1535 67.2751 26.4775C67.5391 26.7895 67.9291 26.9455 68.4451 26.9455Z" fill="black"/>
<path d="M80.385 29.1415C78.669 29.1415 77.325 28.7275 76.353 27.8995C75.393 27.0595 74.883 25.8475 74.823 24.2635C74.811 23.9395 74.805 23.4115 74.805 22.6795C74.805 21.9355 74.811 21.3955 74.823 21.0595C74.883 19.4995 75.405 18.2995 76.389 17.4595C77.373 16.6075 78.705 16.1815 80.385 16.1815C81.441 16.1815 82.389 16.3615 83.229 16.7215C84.069 17.0695 84.729 17.5735 85.209 18.2335C85.701 18.8815 85.953 19.6435 85.965 20.5195V20.5555C85.965 20.6515 85.923 20.7355 85.839 20.8075C85.767 20.8675 85.683 20.8975 85.587 20.8975H83.157C83.001 20.8975 82.881 20.8675 82.797 20.8075C82.713 20.7355 82.641 20.6095 82.581 20.4295C82.413 19.8175 82.149 19.3915 81.789 19.1515C81.429 18.8995 80.955 18.7735 80.367 18.7735C78.951 18.7735 78.219 19.5655 78.171 21.1495C78.159 21.4735 78.153 21.9715 78.153 22.6435C78.153 23.3155 78.159 23.8255 78.171 24.1735C78.219 25.7575 78.951 26.5495 80.367 26.5495C80.955 26.5495 81.435 26.4235 81.807 26.1715C82.179 25.9075 82.437 25.4815 82.581 24.8935C82.629 24.7135 82.695 24.5935 82.779 24.5335C82.863 24.4615 82.989 24.4255 83.157 24.4255H85.587C85.695 24.4255 85.785 24.4615 85.857 24.5335C85.941 24.6055 85.977 24.6955 85.965 24.8035C85.953 25.6795 85.701 26.4475 85.209 27.1075C84.729 27.7555 84.069 28.2595 83.229 28.6195C82.389 28.9675 81.441 29.1415 80.385 29.1415ZM92.0877 29.1415C90.5997 29.1415 89.4537 28.7875 88.6497 28.0795C87.8457 27.3715 87.4077 26.3755 87.3357 25.0915C87.3237 24.9355 87.3177 24.6655 87.3177 24.2815C87.3177 23.8975 87.3237 23.6275 87.3357 23.4715C87.4077 22.1995 87.8577 21.2095 88.6857 20.5015C89.5137 19.7815 90.6477 19.4215 92.0877 19.4215C93.5397 19.4215 94.6797 19.7815 95.5077 20.5015C96.3357 21.2095 96.7857 22.1995 96.8577 23.4715C96.8697 23.6275 96.8757 23.8975 96.8757 24.2815C96.8757 24.6655 96.8697 24.9355 96.8577 25.0915C96.7857 26.3755 96.3477 27.3715 95.5437 28.0795C94.7397 28.7875 93.5877 29.1415 92.0877 29.1415ZM92.0877 26.9455C92.6157 26.9455 93.0057 26.7895 93.2577 26.4775C93.5097 26.1535 93.6537 25.6615 93.6897 25.0015C93.7017 24.8815 93.7077 24.6415 93.7077 24.2815C93.7077 23.9215 93.7017 23.6815 93.6897 23.5615C93.6537 22.9135 93.5037 22.4275 93.2397 22.1035C92.9877 21.7795 92.6037 21.6175 92.0877 21.6175C91.0917 21.6175 90.5637 22.2655 90.5037 23.5615L90.4857 24.2815L90.5037 25.0015C90.5277 25.6615 90.6657 26.1535 90.9177 26.4775C91.1817 26.7895 91.5717 26.9455 92.0877 26.9455ZM99.1136 28.9615C98.9816 28.9615 98.8736 28.9195 98.7896 28.8355C98.7056 28.7515 98.6636 28.6435 98.6636 28.5115V20.0515C98.6636 19.9195 98.7056 19.8115 98.7896 19.7275C98.8736 19.6435 98.9816 19.6015 99.1136 19.6015H101.184C101.316 19.6015 101.424 19.6495 101.508 19.7455C101.604 19.8295 101.652 19.9315 101.652 20.0515V20.7715C102.312 19.9915 103.2 19.6015 104.316 19.6015H105.108C105.24 19.6015 105.348 19.6435 105.432 19.7275C105.516 19.8115 105.558 19.9195 105.558 20.0515V21.9055C105.558 22.0255 105.516 22.1335 105.432 22.2295C105.348 22.3135 105.24 22.3555 105.108 22.3555H103.362C102.87 22.3555 102.486 22.4935 102.21 22.7695C101.946 23.0335 101.814 23.4115 101.814 23.9035V28.5115C101.814 28.6435 101.766 28.7515 101.67 28.8355C101.586 28.9195 101.478 28.9615 101.346 28.9615H99.1136ZM111.178 29.1415C109.69 29.1415 108.544 28.7875 107.74 28.0795C106.936 27.3715 106.498 26.3755 106.426 25.0915C106.414 24.9355 106.408 24.6655 106.408 24.2815C106.408 23.8975 106.414 23.6275 106.426 23.4715C106.498 22.1995 106.948 21.2095 107.776 20.5015C108.604 19.7815 109.738 19.4215 111.178 19.4215C112.63 19.4215 113.77 19.7815 114.598 20.5015C115.426 21.2095 115.876 22.1995 115.948 23.4715C115.96 23.6275 115.966 23.8975 115.966 24.2815C115.966 24.6655 115.96 24.9355 115.948 25.0915C115.876 26.3755 115.438 27.3715 114.634 28.0795C113.83 28.7875 112.678 29.1415 111.178 29.1415ZM111.178 26.9455C111.706 26.9455 112.096 26.7895 112.348 26.4775C112.6 26.1535 112.744 25.6615 112.78 25.0015C112.792 24.8815 112.798 24.6415 112.798 24.2815C112.798 23.9215 112.792 23.6815 112.78 23.5615C112.744 22.9135 112.594 22.4275 112.33 22.1035C112.078 21.7795 111.694 21.6175 111.178 21.6175C110.182 21.6175 109.654 22.2655 109.594 23.5615L109.576 24.2815L109.594 25.0015C109.618 25.6615 109.756 26.1535 110.008 26.4775C110.272 26.7895 110.662 26.9455 111.178 26.9455ZM118.203 28.9615C118.071 28.9615 117.963 28.9195 117.879 28.8355C117.795 28.7515 117.753 28.6435 117.753 28.5115V20.0515C117.753 19.9195 117.795 19.8115 117.879 19.7275C117.963 19.6435 118.071 19.6015 118.203 19.6015H120.273C120.405 19.6015 120.513 19.6435 120.597 19.7275C120.693 19.8115 120.741 19.9195 120.741 20.0515V20.7355C121.065 20.3395 121.479 20.0215 121.983 19.7815C122.499 19.5415 123.081 19.4215 123.729 19.4215C124.785 19.4215 125.643 19.7815 126.303 20.5015C126.963 21.2095 127.293 22.2055 127.293 23.4895V28.5115C127.293 28.6315 127.251 28.7395 127.167 28.8355C127.083 28.9195 126.975 28.9615 126.843 28.9615H124.575C124.455 28.9615 124.347 28.9195 124.251 28.8355C124.167 28.7395 124.125 28.6315 124.125 28.5115V23.5975C124.125 23.0335 123.987 22.6015 123.711 22.3015C123.435 21.9895 123.039 21.8335 122.523 21.8335C122.019 21.8335 121.623 21.9895 121.335 22.3015C121.047 22.6015 120.903 23.0335 120.903 23.5975V28.5115C120.903 28.6315 120.861 28.7395 120.777 28.8355C120.693 28.9195 120.585 28.9615 120.453 28.9615H118.203ZM132.128 29.1415C131.492 29.1415 130.91 29.0215 130.382 28.7815C129.866 28.5295 129.458 28.1935 129.158 27.7735C128.87 27.3415 128.726 26.8675 128.726 26.3515C128.726 25.5235 129.062 24.8575 129.734 24.3535C130.418 23.8495 131.354 23.5015 132.542 23.3095L134.792 22.9675V22.7155C134.792 22.2595 134.696 21.9235 134.504 21.7075C134.312 21.4915 133.988 21.3835 133.532 21.3835C133.256 21.3835 133.028 21.4315 132.848 21.5275C132.668 21.6235 132.482 21.7555 132.29 21.9235C132.122 22.0675 131.996 22.1635 131.912 22.2115C131.876 22.3075 131.81 22.3555 131.714 22.3555H129.752C129.632 22.3555 129.53 22.3195 129.446 22.2475C129.374 22.1635 129.344 22.0675 129.356 21.9595C129.368 21.6355 129.524 21.2755 129.824 20.8795C130.136 20.4835 130.604 20.1415 131.228 19.8535C131.864 19.5655 132.644 19.4215 133.568 19.4215C135.044 19.4215 136.136 19.7515 136.844 20.4115C137.552 21.0595 137.906 21.9355 137.906 23.0395V28.5115C137.906 28.6315 137.864 28.7395 137.78 28.8355C137.696 28.9195 137.588 28.9615 137.456 28.9615H135.368C135.248 28.9615 135.14 28.9195 135.044 28.8355C134.96 28.7395 134.918 28.6315 134.918 28.5115V27.8815C134.654 28.2535 134.282 28.5595 133.802 28.7995C133.334 29.0275 132.776 29.1415 132.128 29.1415ZM132.974 27.0895C133.526 27.0895 133.97 26.9095 134.306 26.5495C134.654 26.1895 134.828 25.6615 134.828 24.9655V24.7135L133.298 24.9835C132.218 25.1755 131.678 25.5535 131.678 26.1175C131.678 26.4175 131.804 26.6575 132.056 26.8375C132.308 27.0055 132.614 27.0895 132.974 27.0895Z" fill="#EC5863"/>
<path d="M16.095 11.8185C17.1662 11.0053 18.6676 11.1428 19.4477 12.1252C20.0448 12.8774 20.0454 13.9062 19.5335 14.7122L20.2297 15.6113L21.0427 16.1046C21.2284 16.2176 21.4587 16.2256 21.6579 16.1327C22.1947 15.8823 22.7489 15.699 23.3103 15.5791C23.5006 15.5386 23.6647 15.4182 23.7566 15.2469L24.0565 14.6905L24.0839 13.6643C23.6974 13.382 23.4518 12.9216 23.4656 12.4036C23.4892 11.5254 24.2488 10.8282 25.1401 10.8944C25.9078 10.9512 26.5153 11.5861 26.5371 12.3538C26.5513 12.8428 26.3365 13.2824 25.9946 13.5767L25.9645 14.7139L26.2218 15.2513C26.3103 15.4361 26.4787 15.5677 26.6789 15.6144C27.3527 15.773 28.0042 16.0229 28.6129 16.3589C28.8175 16.472 29.0683 16.4674 29.2743 16.3516L30.3348 15.7562L31.3909 14.6319C31.2002 14.002 31.3455 13.2857 31.8341 12.7656C32.5729 11.9794 33.8101 11.9432 34.5718 12.695C35.2592 13.3731 35.3124 14.4896 34.6915 15.247C34.2065 15.8378 33.4595 16.0652 32.781 15.9165L31.7184 17.047L31.2395 18.0426C31.111 18.3097 31.1331 18.6211 31.2918 18.8676C31.2927 18.8691 31.2933 18.8701 31.2943 18.8715C31.5667 19.2968 31.7904 19.7405 31.968 20.1947C32.0733 20.4655 32.3084 20.6633 32.5957 20.7156L33.6917 20.9149L35.6598 20.6597C35.8978 20.2683 36.3057 19.9836 36.7939 19.9199C37.6696 19.8065 38.4585 20.45 38.5052 21.3413C38.5444 22.1047 37.9968 22.7997 37.2411 22.9441C36.7257 23.0425 36.2322 22.8754 35.8917 22.5457L33.911 22.8028L32.8015 23.3185C32.5971 23.4141 32.4532 23.6073 32.4276 23.8299C32.3238 24.7098 32.0694 25.5706 31.673 26.3714C31.5745 26.5704 31.5878 26.805 31.7046 26.9906L32.3386 28.0021L33.3936 28.8765C34.1355 28.5067 35.0509 28.578 35.7209 29.1334C36.6214 29.8794 36.7398 31.2169 35.9907 32.1313C35.242 33.0454 33.88 33.1972 32.9714 32.4668C32.3353 31.9555 32.0778 31.153 32.2269 30.4013L31.107 29.4734L29.9454 29.0176C29.7731 28.9495 29.5774 28.9803 29.4291 29.094C29.2645 29.2201 29.0941 29.3405 28.917 29.4548C27.955 30.0759 26.9079 30.4566 25.8474 30.6136C25.6921 30.6369 25.5543 30.7279 25.472 30.8621L25.1111 31.4524L25.0266 32.4764C25.3969 32.7801 25.6161 33.2535 25.5736 33.7701C25.5011 34.6468 24.7044 35.3014 23.8192 35.1859C23.0569 35.0865 22.4858 34.4185 22.5066 33.65C22.5198 33.1605 22.7579 32.7333 23.1157 32.4583L23.2092 31.3235L22.8567 30.4682C21.9759 30.2489 21.1352 29.8731 20.3803 29.3512L19.1595 29.8852L18.1629 30.8495C18.418 31.6343 18.2465 32.5159 17.6461 33.111C16.7975 33.9516 15.4151 33.9022 14.5585 33.0001C13.7022 32.0984 13.6952 30.6862 14.5438 29.8457C15.1788 29.2166 16.1122 29.0859 16.9009 29.4382L17.8407 28.5285L18.3535 27.4534C18.3869 27.383 18.3818 27.3011 18.3404 27.2365L18.3397 27.2355C17.5677 26.0301 17.1842 24.6824 17.156 23.3381C17.1541 23.2645 17.1168 23.1965 17.0544 23.1578L16.1399 22.583L14.47 22.3008C14.1293 22.6025 13.6608 22.7546 13.1812 22.6733C12.3147 22.5264 11.753 21.6798 11.9688 20.8109C12.1585 20.0488 12.9121 19.5375 13.688 19.6439C14.1902 19.7127 14.5953 20.0152 14.8154 20.4241L16.4853 20.7063L17.5363 20.4695C17.6094 20.4532 17.669 20.4009 17.6968 20.3315C17.9809 19.6115 18.3742 18.9295 18.8709 18.3134C19.0069 18.1438 19.0545 17.9207 18.9928 17.7146L18.7133 16.7889L17.9711 15.8308C17.084 16.0511 16.1348 15.7838 15.5674 15.0694C14.7873 14.087 15.0235 12.6312 16.095 11.8185Z" fill="#EC5863"/>
<path d="M29.5931 20.0389C27.9049 17.43 24.3878 16.6979 21.7375 18.4037C19.0872 20.1095 18.3072 23.6072 19.9954 26.2161C21.6836 28.825 25.2007 29.5571 27.851 27.8513C30.5013 26.1455 31.2813 22.6478 29.5931 20.0389Z" fill="#F58A97"/>
<path d="M26.2932 27.0644C23.5589 28.2589 20.2164 27.4526 18.4088 25.2833C18.5129 25.5441 18.6406 25.8021 18.7924 26.0552C20.411 28.753 24.169 29.8714 27.1865 28.5533C30.2039 27.2352 31.3378 23.9798 29.7192 21.282C29.5673 21.0289 29.3967 20.7897 29.2095 20.5651C30.2151 23.0847 29.0275 25.87 26.2932 27.0644Z" fill="#F07281"/>
<path d="M15.9219 36.178C15.4388 35.3845 14.4372 35.0942 13.6849 35.5295C12.9326 35.9647 12.7143 36.9608 13.1975 37.7542C13.6807 38.5477 14.6822 38.838 15.4346 38.4027C16.1869 37.9675 16.4051 36.9714 15.9219 36.178Z" fill="#EB5569"/>
<path d="M38.845 30.7279C38.5258 30.2038 37.8643 30.012 37.3674 30.2995C36.8705 30.587 36.7263 31.2449 37.0455 31.769C37.3646 32.2931 38.0261 32.4849 38.5231 32.1974C39.02 31.9099 39.1641 31.252 38.845 30.7279Z" fill="#EB5569"/>
<path d="M35.4517 8.69277C34.9816 7.92085 34.0072 7.63838 33.2753 8.06185C32.5434 8.48531 32.3311 9.45436 32.8011 10.2263C33.2712 10.9982 34.2456 11.2807 34.9775 10.8572C35.7094 10.4337 35.9217 9.46469 35.4517 8.69277Z" fill="#EB5569"/>
<path d="M24.8308 24.7592C24.3925 24.0396 23.4841 23.7762 22.8017 24.171C22.1193 24.5658 21.9214 25.4693 22.3596 26.1889C22.7979 26.9086 23.7063 27.172 24.3887 26.7772C25.0711 26.3824 25.269 25.4789 24.8308 24.7592Z" fill="#EB5569"/>
<path d="M29.0625 22.3855C28.7643 21.8956 28.1459 21.7164 27.6815 21.9851C27.217 22.2538 27.0823 22.8688 27.3806 23.3586C27.6789 23.8484 28.2972 24.0277 28.7617 23.759C29.2261 23.4903 29.3608 22.8753 29.0625 22.3855Z" fill="#EB5569"/>
<path d="M24.7493 19.9312C24.4989 19.5199 23.9796 19.3694 23.5896 19.595C23.1996 19.8207 23.0865 20.3371 23.337 20.7484C23.5874 21.1597 24.1067 21.3102 24.4967 21.0846C24.8867 20.8589 24.9998 20.3426 24.7493 19.9312Z" fill="#EB5569"/>
</svg>
