<svg width="50" height="46" viewBox="0 0 50 46" fill="none" xmlns="http://www.w3.org/2000/svg">
<path d="M16.095 11.8185C17.1662 11.0053 18.6676 11.1428 19.4477 12.1252C20.0448 12.8774 20.0454 13.9062 19.5335 14.7122L20.2297 15.6113L21.0427 16.1046C21.2284 16.2176 21.4587 16.2256 21.6579 16.1327C22.1947 15.8823 22.7489 15.699 23.3103 15.5791C23.5006 15.5386 23.6647 15.4182 23.7566 15.2469L24.0565 14.6905L24.0839 13.6643C23.6974 13.382 23.4518 12.9216 23.4656 12.4036C23.4892 11.5254 24.2488 10.8282 25.1401 10.8944C25.9078 10.9512 26.5153 11.5861 26.5371 12.3538C26.5513 12.8428 26.3365 13.2824 25.9946 13.5767L25.9645 14.7139L26.2218 15.2513C26.3103 15.4361 26.4787 15.5677 26.6789 15.6144C27.3527 15.773 28.0042 16.0229 28.6129 16.3589C28.8175 16.472 29.0683 16.4674 29.2743 16.3516L30.3348 15.7562L31.3909 14.6319C31.2002 14.002 31.3455 13.2857 31.8341 12.7656C32.5729 11.9794 33.8101 11.9432 34.5718 12.695C35.2592 13.3731 35.3124 14.4896 34.6915 15.247C34.2065 15.8378 33.4595 16.0652 32.781 15.9165L31.7184 17.047L31.2395 18.0426C31.111 18.3097 31.1331 18.6211 31.2918 18.8676C31.2927 18.8691 31.2933 18.8701 31.2943 18.8715C31.5667 19.2968 31.7904 19.7405 31.968 20.1947C32.0733 20.4655 32.3084 20.6633 32.5957 20.7156L33.6917 20.9149L35.6598 20.6597C35.8978 20.2683 36.3057 19.9836 36.7939 19.9199C37.6696 19.8065 38.4585 20.45 38.5052 21.3413C38.5444 22.1047 37.9968 22.7997 37.2411 22.9441C36.7257 23.0425 36.2322 22.8754 35.8917 22.5457L33.911 22.8028L32.8015 23.3185C32.5971 23.4141 32.4532 23.6073 32.4276 23.8299C32.3238 24.7098 32.0694 25.5706 31.673 26.3714C31.5745 26.5704 31.5878 26.805 31.7046 26.9906L32.3386 28.0021L33.3936 28.8765C34.1355 28.5067 35.0509 28.578 35.7209 29.1334C36.6214 29.8794 36.7398 31.2169 35.9907 32.1313C35.242 33.0454 33.88 33.1972 32.9714 32.4668C32.3353 31.9555 32.0778 31.153 32.2269 30.4013L31.107 29.4734L29.9454 29.0176C29.7731 28.9495 29.5774 28.9803 29.4291 29.094C29.2645 29.2201 29.0941 29.3405 28.917 29.4548C27.955 30.0759 26.9079 30.4566 25.8474 30.6136C25.6921 30.6369 25.5543 30.7279 25.472 30.8621L25.1111 31.4524L25.0266 32.4764C25.3969 32.7801 25.6161 33.2535 25.5736 33.7701C25.5011 34.6468 24.7044 35.3014 23.8192 35.1859C23.0569 35.0865 22.4858 34.4185 22.5066 33.65C22.5198 33.1605 22.7579 32.7333 23.1157 32.4583L23.2092 31.3235L22.8567 30.4682C21.9759 30.2489 21.1352 29.8731 20.3803 29.3512L19.1595 29.8852L18.1629 30.8495C18.418 31.6343 18.2465 32.5159 17.6461 33.111C16.7975 33.9516 15.4151 33.9022 14.5585 33.0001C13.7022 32.0984 13.6952 30.6862 14.5438 29.8457C15.1788 29.2166 16.1122 29.0859 16.9009 29.4382L17.8407 28.5285L18.3535 27.4534C18.3869 27.383 18.3818 27.3011 18.3404 27.2365L18.3397 27.2355C17.5677 26.0301 17.1842 24.6824 17.156 23.3381C17.1541 23.2645 17.1168 23.1965 17.0544 23.1578L16.1399 22.583L14.47 22.3008C14.1293 22.6025 13.6608 22.7546 13.1812 22.6733C12.3147 22.5264 11.753 21.6798 11.9688 20.8109C12.1585 20.0488 12.9121 19.5375 13.688 19.6439C14.1902 19.7127 14.5953 20.0152 14.8154 20.4241L16.4853 20.7063L17.5363 20.4695C17.6094 20.4532 17.669 20.4009 17.6968 20.3315C17.9809 19.6115 18.3742 18.9295 18.8709 18.3134C19.0069 18.1438 19.0545 17.9207 18.9928 17.7146L18.7133 16.7889L17.9711 15.8308C17.084 16.0511 16.1348 15.7838 15.5674 15.0694C14.7873 14.087 15.0235 12.6312 16.095 11.8185Z" fill="#EC5863"/>
<path d="M29.5931 20.0389C27.9049 17.43 24.3878 16.6979 21.7375 18.4037C19.0872 20.1095 18.3072 23.6072 19.9954 26.2161C21.6836 28.825 25.2007 29.5571 27.851 27.8513C30.5013 26.1455 31.2813 22.6478 29.5931 20.0389Z" fill="#F58A97"/>
<path d="M26.2932 27.0644C23.5589 28.2589 20.2164 27.4526 18.4088 25.2833C18.5129 25.5441 18.6406 25.8021 18.7924 26.0552C20.411 28.753 24.169 29.8714 27.1865 28.5533C30.2039 27.2352 31.3378 23.9798 29.7192 21.282C29.5673 21.0289 29.3967 20.7897 29.2095 20.5651C30.2151 23.0847 29.0275 25.87 26.2932 27.0644Z" fill="#F07281"/>
<path d="M15.9219 36.178C15.4388 35.3845 14.4372 35.0942 13.6849 35.5295C12.9326 35.9647 12.7143 36.9608 13.1975 37.7542C13.6807 38.5477 14.6822 38.838 15.4346 38.4027C16.1869 37.9675 16.4051 36.9714 15.9219 36.178Z" fill="#EB5569"/>
<path d="M38.845 30.7279C38.5258 30.2038 37.8643 30.012 37.3674 30.2995C36.8705 30.587 36.7263 31.2449 37.0455 31.769C37.3646 32.2931 38.0261 32.4849 38.5231 32.1974C39.02 31.9099 39.1641 31.252 38.845 30.7279Z" fill="#EB5569"/>
<path d="M35.4517 8.69277C34.9816 7.92085 34.0072 7.63838 33.2753 8.06185C32.5434 8.48531 32.3311 9.45436 32.8011 10.2263C33.2712 10.9982 34.2456 11.2807 34.9775 10.8572C35.7094 10.4337 35.9217 9.46469 35.4517 8.69277Z" fill="#EB5569"/>
<path d="M24.8308 24.7592C24.3925 24.0396 23.4841 23.7762 22.8017 24.171C22.1193 24.5658 21.9214 25.4693 22.3596 26.1889C22.7979 26.9086 23.7063 27.172 24.3887 26.7772C25.0711 26.3824 25.269 25.4789 24.8308 24.7592Z" fill="#EB5569"/>
<path d="M29.0625 22.3855C28.7643 21.8956 28.1459 21.7164 27.6815 21.9851C27.217 22.2538 27.0823 22.8688 27.3806 23.3586C27.6789 23.8484 28.2972 24.0277 28.7617 23.759C29.2261 23.4903 29.3608 22.8753 29.0625 22.3855Z" fill="#EB5569"/>
<path d="M24.7493 19.9312C24.4989 19.5199 23.9796 19.3694 23.5896 19.595C23.1996 19.8207 23.0865 20.3371 23.337 20.7484C23.5874 21.1597 24.1067 21.3102 24.4967 21.0846C24.8867 20.8589 24.9998 20.3426 24.7493 19.9312Z" fill="#EB5569"/>
</svg>
